<svg width="108" height="39" viewBox="0 0 108 39" fill="none" xmlns="http://www.w3.org/2000/svg">
    <path fill-rule="evenodd" clip-rule="evenodd"
          d="M60.374 5.44807H61.7272L61.2041 3.68845H60.8971L60.374 5.44807ZM62.006 6.37042H60.1091L59.7046 7.73981H58.6794L60.2626 2.67383H61.8736L63.4639 7.73981H62.4105L62.006 6.37042Z"
          fill="white"/>
    <path fill-rule="evenodd" clip-rule="evenodd" d="M65.2262 3.61748V7.73981H64.1674V2.67383H67.8262V3.61748H65.2262Z"
          fill="white"/>
    <path fill-rule="evenodd" clip-rule="evenodd"
          d="M72.4709 6.79616V7.73981H68.6714V2.67383H72.3931V3.61748H69.7216V4.68178H71.8011V5.60417H69.7216V6.79616H72.4709Z"
          fill="white"/>
    <path fill-rule="evenodd" clip-rule="evenodd"
          d="M77.8176 2.67383V7.73981H76.7588V5.61833H74.5137V7.73981H73.4553V2.67383H74.5137V4.64631H76.7588V2.67383H77.8176Z"
          fill="white"/>
    <path fill-rule="evenodd" clip-rule="evenodd"
          d="M82.6018 3.60332H81.0213V7.73981H79.9607V3.60332H78.3802V2.67383H82.6018V3.60332Z" fill="white"/>
    <path fill-rule="evenodd" clip-rule="evenodd"
          d="M87.5272 6.18483C87.3724 7.18396 86.6054 7.88054 85.4303 7.88054C83.8967 7.88054 83.0241 6.81103 83.0241 5.27716C83.0241 3.7433 83.9035 2.67383 85.4303 2.67383C86.549 2.67383 87.3019 3.30707 87.478 4.22882H86.3801C86.2605 3.82776 85.93 3.60962 85.4303 3.60962C84.5297 3.60962 84.1008 4.34137 84.1008 5.27716C84.1008 6.20596 84.5297 6.94474 85.4303 6.94474C85.972 6.94474 86.3381 6.66327 86.4365 6.18483H87.5272Z"
          fill="white"/>
    <path fill-rule="evenodd" clip-rule="evenodd"
          d="M92.1718 3.60332H90.5915V7.73981H89.5305V3.60332H87.9501V2.67383H92.1718V3.60332Z" fill="white"/>
    <path fill-rule="evenodd" clip-rule="evenodd"
          d="M96.0021 6.21432C96.0021 5.78863 95.7372 5.56867 95.1936 5.56867H93.9412V6.83872H95.179C95.7088 6.83872 96.0021 6.64006 96.0021 6.21432ZM95.8589 4.11415C95.8589 3.73812 95.6156 3.55366 95.1362 3.55366H93.9412V4.68178H95.1432C95.6229 4.68178 95.8589 4.49731 95.8589 4.11415ZM97.0967 6.27109C97.0967 7.11542 96.5458 7.73981 95.3364 7.73981H92.8751V2.67383H95.2722C96.4029 2.67383 96.9539 3.29112 96.9539 4.01485C96.9539 4.47601 96.7464 4.87334 96.4172 5.03654V5.17844C96.7822 5.32744 97.0967 5.76737 97.0967 6.27109Z"
          fill="white"/>
    <path fill-rule="evenodd" clip-rule="evenodd"
          d="M101.642 5.27716C101.642 4.34845 101.211 3.60962 100.263 3.60962C99.3214 3.60962 98.8828 4.34845 98.8828 5.27716C98.8828 6.20596 99.3214 6.94474 100.263 6.94474C101.211 6.94474 101.642 6.20596 101.642 5.27716ZM102.725 5.27716C102.725 6.75477 101.862 7.88054 100.263 7.88054C98.6631 7.88054 97.8 6.75477 97.8 5.27716C97.8 3.79959 98.6631 2.67383 100.263 2.67383C101.862 2.67383 102.725 3.79959 102.725 5.27716Z"
          fill="white"/>
    <path fill-rule="evenodd" clip-rule="evenodd"
          d="M60.0746 11.9612V15.5017H60.2147L62.0985 11.9612H63.4638V17.0272H62.4835V13.4086H62.3433L60.4178 17.0272H59.1014V11.9612H60.0746Z"
          fill="white"/>
    <path fill-rule="evenodd" clip-rule="evenodd"
          d="M69.0929 11.9612V17.0272H68.0344V14.9057H65.7894V17.0272H64.7305V11.9612H65.7894V13.9337H68.0344V11.9612H69.0929Z"
          fill="white"/>
    <path fill-rule="evenodd" clip-rule="evenodd"
          d="M74.581 11.9612V17.0272H73.5224V14.9057H71.2772V17.0272H70.2186V11.9612H71.2772V13.9337H73.5224V11.9612H74.581Z"
          fill="white"/>
    <path fill-rule="evenodd" clip-rule="evenodd"
          d="M79.2681 14.5645C79.2681 13.6358 78.8363 12.897 77.8883 12.897C76.9471 12.897 76.5085 13.6358 76.5085 14.5645C76.5085 15.4933 76.9471 16.2321 77.8883 16.2321C78.8363 16.2321 79.2681 15.4933 79.2681 14.5645ZM80.3509 14.5645C80.3509 16.0421 79.4874 17.1679 77.8883 17.1679C76.2888 17.1679 75.4257 16.0421 75.4257 14.5645C75.4257 13.0869 76.2888 11.9612 77.8883 11.9612C79.4874 11.9612 80.3509 13.0869 80.3509 14.5645Z"
          fill="white"/>
    <path fill-rule="evenodd" clip-rule="evenodd"
          d="M84.4629 15.5017C84.4629 15.076 84.198 14.856 83.6544 14.856H82.4019V16.1261H83.6397C84.1695 16.1261 84.4629 15.9274 84.4629 15.5017ZM84.3197 13.4015C84.3197 13.0255 84.0763 12.841 83.597 12.841H82.4019V13.9691H83.6039C84.0837 13.9691 84.3197 13.7847 84.3197 13.4015ZM85.5575 15.5584C85.5575 16.4028 85.0065 17.0272 83.7972 17.0272H81.3358V11.9612H83.7329C84.8637 11.9612 85.4146 12.5785 85.4146 13.3022C85.4146 13.7634 85.2071 14.1607 84.8779 14.3239V14.4658C85.2429 14.6148 85.5575 15.0547 85.5575 15.5584Z"
          fill="white"/>
    <path fill-rule="evenodd" clip-rule="evenodd"
          d="M87.6744 14.7354H89.0276L88.5045 12.9758H88.1975L87.6744 14.7354ZM89.3064 15.6578H87.4095L87.0049 17.0272H85.9797L87.563 11.9612H89.1739L90.7643 17.0272H89.7109L89.3064 15.6578Z"
          fill="white"/>
    <path fill-rule="evenodd" clip-rule="evenodd"
          d="M95.3785 17.0471H91.4678V11.9612H92.5101V16.0997H94.637V11.9612H95.6793V16.0997H96.393V18.2937H95.3785V17.0471Z"
          fill="white"/>
    <path fill-rule="evenodd" clip-rule="evenodd"
          d="M98.2111 11.9612V15.5017H98.3513L100.235 11.9612H101.6V17.0272H100.62V13.4086H100.48L98.5543 17.0272H97.238V11.9612H98.2111Z"
          fill="white"/>
    <path fill-rule="evenodd" clip-rule="evenodd"
          d="M106.367 10.6946C106.311 11.36 105.835 11.7733 105.044 11.7733C104.252 11.7733 103.776 11.36 103.72 10.6946H104.491C104.518 10.9327 104.701 11.1288 105.044 11.1288C105.38 11.1288 105.562 10.9397 105.597 10.6946H106.367ZM103.84 12.0255V15.521H103.979L105.863 12.0255H107.228V17.0271H106.248V13.4545H106.108L104.182 17.0271H102.866V12.0255H103.84Z"
          fill="white"/>
    <path fill-rule="evenodd" clip-rule="evenodd" d="M60.1598 22.3333V26.4556H59.1014V21.3896H62.7602V22.3333H60.1598Z"
          fill="white"/>
    <path fill-rule="evenodd" clip-rule="evenodd"
          d="M67.0247 23.8526C67.0247 22.9239 66.5929 22.1851 65.6449 22.1851C64.7037 22.1851 64.2651 22.9239 64.2651 23.8526C64.2651 24.7814 64.7037 25.5202 65.6449 25.5202C66.5929 25.5202 67.0247 24.7814 67.0247 23.8526ZM68.1075 23.8526C68.1075 25.3302 67.244 26.456 65.6449 26.456C64.0454 26.456 63.1823 25.3302 63.1823 23.8526C63.1823 22.375 64.0454 21.2493 65.6449 21.2493C67.244 21.2493 68.1075 22.375 68.1075 23.8526Z"
          fill="white"/>
    <path fill-rule="evenodd" clip-rule="evenodd"
          d="M72.1051 23.0144C72.1051 22.5674 71.8678 22.3191 71.2249 22.3191H70.1345V23.7098H71.2249C71.8678 23.7098 72.1051 23.4544 72.1051 23.0144ZM73.1744 23.0003C73.1744 24.022 72.5104 24.6393 71.3715 24.6393H70.1345V26.4556H69.0934V21.3896H71.3715C72.5104 21.3896 73.1744 21.9927 73.1744 23.0003Z"
          fill="white"/>
    <path fill-rule="evenodd" clip-rule="evenodd"
          d="M77.7198 23.8526C77.7198 22.9239 77.288 22.1851 76.34 22.1851C75.3988 22.1851 74.9601 22.9239 74.9601 23.8526C74.9601 24.7814 75.3988 25.5202 76.34 25.5202C77.288 25.5202 77.7198 24.7814 77.7198 23.8526ZM78.8026 23.8526C78.8026 25.3302 77.9391 26.456 76.34 26.456C74.7404 26.456 73.8773 25.3302 73.8773 23.8526C73.8773 22.375 74.7404 21.2493 76.34 21.2493C77.9391 21.2493 78.8026 22.375 78.8026 23.8526Z"
          fill="white"/>
    <path fill-rule="evenodd" clip-rule="evenodd"
          d="M82.8314 22.1966H81.3169V22.6454C81.3169 23.9276 81.0982 24.8394 80.8093 25.3878H82.8314V22.1966ZM84.5718 25.3878V27.5817H83.5501V26.3352H80.246V27.5817H79.2244V25.3878H79.7456C80.0838 24.7752 80.3446 23.8492 80.3446 22.3676V21.2493H83.853V25.3878H84.5718Z"
          fill="white"/>
    <path fill-rule="evenodd" clip-rule="evenodd"
          d="M86.5481 24.1639H87.9013L87.3782 22.4043H87.0712L86.5481 24.1639ZM88.1801 25.0863H86.2832L85.8787 26.4556H84.8535L86.4367 21.3896H88.0476L89.638 26.4556H88.5846L88.1801 25.0863Z"
          fill="white"/>
    <path fill-rule="evenodd" clip-rule="evenodd"
          d="M59.1014 30.6772H60.7545L61.5775 32.6994H61.7196L62.5426 30.6772H64.1674V35.7432H63.1813V31.7912H63.0393L62.117 34.0475H61.1519L60.2295 31.7912H60.0875V35.7432H59.1014V30.6772Z"
          fill="white"/>
    <path fill-rule="evenodd" clip-rule="evenodd"
          d="M68.854 33.14C68.854 32.2112 68.4223 31.4724 67.4742 31.4724C66.533 31.4724 66.094 32.2112 66.094 33.14C66.094 34.0687 66.533 34.8076 67.4742 34.8076C68.4223 34.8076 68.854 34.0687 68.854 33.14ZM69.9369 33.14C69.9369 34.6176 69.0733 35.7433 67.4742 35.7433C65.8747 35.7433 65.0116 34.6176 65.0116 33.14C65.0116 31.6624 65.8747 30.5366 67.4742 30.5366C69.0733 30.5366 69.9369 31.6624 69.9369 33.14Z"
          fill="white"/>
    <path fill-rule="evenodd" clip-rule="evenodd"
          d="M75.1438 34.0476C74.9889 35.0467 74.222 35.7433 73.0469 35.7433C71.5133 35.7433 70.6407 34.6739 70.6407 33.14C70.6407 31.6061 71.5201 30.5366 73.0469 30.5366C74.1655 30.5366 74.9185 31.1699 75.0946 32.0916H73.9967C73.8771 31.6905 73.5466 31.4724 73.0469 31.4724C72.1463 31.4724 71.7169 32.2042 71.7169 33.14C71.7169 34.0687 72.1463 34.8076 73.0469 34.8076C73.5886 34.8076 73.9547 34.5261 74.0531 34.0476H75.1438Z"
          fill="white"/>
    <path fill-rule="evenodd" clip-rule="evenodd"
          d="M76.1288 30.6772H77.1911V32.6568H78.3669L79.3295 30.6772H80.4271L79.2582 33.1393L80.4912 35.7432H79.3936L78.3742 33.6147H77.1911V35.7432H76.1288V30.6772Z"
          fill="white"/>
    <path fill-rule="evenodd" clip-rule="evenodd"
          d="M84.3218 34.2178C84.3218 33.7921 84.0569 33.5721 83.5133 33.5721H82.2609V34.8421H83.4987C84.0285 34.8421 84.3218 34.6435 84.3218 34.2178ZM84.1786 32.1176C84.1786 31.7415 83.9353 31.557 83.4559 31.557H82.2609V32.6852H83.4629C83.9426 32.6852 84.1786 32.5007 84.1786 32.1176ZM85.4164 34.2745C85.4164 35.1189 84.8655 35.7432 83.6561 35.7432H81.1948V30.6772H83.5919C84.7226 30.6772 85.2736 31.2945 85.2736 32.0182C85.2736 32.4794 85.0661 32.8767 84.7369 33.0399V33.1819C85.1019 33.3308 85.4164 33.7708 85.4164 34.2745Z"
          fill="white"/>
    <path fill-rule="evenodd" clip-rule="evenodd"
          d="M90.8294 35.7432H91.8896V30.6772H90.8294V35.7432ZM89.1784 34.0688C89.1784 33.5934 88.9222 33.3237 88.2177 33.3237H87.321V34.8138H88.2177C88.9222 34.8138 89.1784 34.5512 89.1784 34.0688ZM86.2607 35.7432V30.6772H87.321V32.3943H88.3812C89.5697 32.3943 90.2673 33.0258 90.2673 34.0617C90.2673 35.1118 89.5697 35.7432 88.3812 35.7432H86.2607Z"
          fill="white"/>
    <path fill-rule="evenodd" clip-rule="evenodd"
          d="M10.2102 34.144C9.9517 34.4653 9.55549 34.5731 9.32219 34.3855C9.11639 34.2206 9.11049 33.8785 9.28943 33.5802C9.14128 33.6179 9.0102 33.6991 8.92336 33.8247C8.70187 34.144 8.83098 34.62 9.21339 34.8873C9.59579 35.1556 10.0867 35.1129 10.3085 34.7947C10.4638 34.5731 10.4448 34.2754 10.2915 34.0247C10.2679 34.0652 10.241 34.1053 10.2102 34.144ZM23.3111 11.4867C22.8501 11.0442 22.9854 10.1719 22.9854 10.1719C22.7911 10.3348 22.544 11.4746 22.9546 12.0526C23.4298 12.7228 23.8567 12.8149 24.2333 13.5442C24.2791 13.4405 24.2201 13.1799 24.1225 12.9847C23.9747 12.688 23.917 12.4412 24.2661 12.3404C25.253 12.0535 26.1702 13.4773 26.7086 13.4533C27.4626 13.4208 27.632 12.7444 27.6635 12.711C27.6956 12.6785 27.2673 13.0044 26.7807 12.9459C26.0123 12.8533 25.6567 11.9885 24.792 11.8123C24.2404 11.7007 23.7728 11.93 23.3111 11.4867ZM22.7852 27.3542C22.529 27.7297 22.7242 28.26 23.4042 28.4594C24.0167 28.6378 24.422 28.8245 24.7212 29.1261C25.1616 29.567 25.367 29.6222 25.4732 29.6184L6.66727 3.51501L6.41788 3.69695C6.41788 3.69695 17.2699 18.7613 22.0967 25.4638C22.277 25.7129 23.0117 27.0195 22.7852 27.3542ZM22.7118 28.5433C21.9971 28.561 21.1759 28.8166 20.3499 28.0513C19.2796 27.0601 18.1635 27.6935 18.1635 27.6935C18.1635 27.6935 18.868 28.3976 18.4758 28.6874C17.8365 29.1606 18.3074 29.715 18.25 29.932C18.193 30.1479 17.5497 30.1923 16.4729 29.7001C15.8612 29.4179 15.3012 29.4274 14.9322 29.4862C14.654 29.5332 14.7457 29.7346 14.8083 29.7924C14.8083 29.7924 15.2612 30.2077 15.4378 30.3228C15.5794 30.4127 15.9408 30.7124 16.0758 30.6149C16.2069 30.5211 15.9208 29.9902 15.9208 29.9902C15.9208 29.9902 18.0423 30.6999 18.7838 30.6999C19.6463 30.6999 18.8382 29.2634 19.5172 29.1954C19.8593 29.1606 20.2863 29.6949 20.9911 29.7957C21.4817 29.8673 21.9552 29.6573 22.4372 29.5365C22.9507 29.4084 23.1453 30.0461 23.2174 30.6073C23.2299 30.6986 23.2482 30.9306 23.3465 31.1007C23.5159 30.2919 23.742 28.5183 22.7118 28.5433ZM28.0829 30.2041C27.8031 29.4504 27.2693 29.7754 27.0307 29.6919C26.7918 29.609 26.4825 29.31 26.3819 28.5096C26.2823 27.7073 25.6023 28.1406 25.6023 28.1406C25.6023 28.1406 26.3884 29.7208 26.706 30.563C27.0242 31.4033 27.2909 30.7518 27.6779 31.2132C28.0678 31.6744 28.0226 34.0444 27.8024 34.8072C27.5079 35.818 26.919 36.5296 26.3183 37.01C26.8659 36.9463 27.8863 35.8718 28.1731 35.1668C28.5027 34.3573 28.3139 33.611 28.3139 33.611L28.7743 33.5697L28.4935 32.8349L28.9375 32.7679C28.9375 32.7679 28.3611 30.9565 28.0829 30.2041ZM9.79898 31.7039C9.23567 31.5496 8.62976 31.521 8.02912 31.6009C7.4082 31.6934 6.90908 31.87 6.38905 31.843C5.87295 31.8308 5.38898 31.6271 5.07374 31.2539C4.93218 31.0896 4.82896 30.8971 4.75489 30.6924C5.00424 30.1755 5.4889 29.6527 6.35368 29.1711C9.37462 27.4891 8.37583 25.5919 8.1871 23.3948C8.09207 22.2783 8.31814 21.2618 8.89064 20.7469C9.69933 20.0164 11.0586 20.1065 11.0586 20.1065C10.9033 19.9077 9.08235 19.2545 7.6926 19.6596C6.20357 20.0931 5.928 21.1723 5.67238 21.9396C5.45124 22.6045 5.16218 23.3882 3.84554 23.9409C1.63233 24.8707 1.7818 26.6141 1.7818 26.6141C1.7818 26.6141 0.979251 24.8921 3.13052 23.4362C5.86183 21.5884 4.81061 20.1686 5.72352 19.3212C6.43691 18.6611 7.2902 18.7662 8.59243 19.1233C8.35813 18.8464 4.89773 17.3927 4.49601 20.4804C4.15488 23.1047 1.65136 22.7387 1.21785 25.2081C0.912446 26.9604 2.56793 28.4278 2.56793 28.4278C2.56793 28.4278 1.24535 25.7753 3.84687 24.7024C5.64688 23.9622 6.67249 23.1063 6.93991 22.2622C6.92486 22.532 6.92679 22.8191 6.93465 23.1326C6.96348 24.32 7.52747 25.2483 7.3538 26.9184C7.25744 27.8377 5.58132 28.755 4.64476 29.6985C4.67756 29.2752 4.79094 28.8639 5.00231 28.5242C5.23886 28.1623 5.62589 27.7746 5.7943 27.3458C5.98765 26.9237 6.01387 26.4751 5.9516 26.111C5.90045 25.815 5.79627 25.5811 5.68619 25.3824C5.64423 25.3994 5.60493 25.4155 5.56558 25.4284C5.75496 25.8734 5.86051 26.5478 5.49476 27.2043C5.31298 27.5804 4.99115 27.8462 4.64805 28.2869C4.33546 28.7226 4.11951 29.2726 4.09129 29.8696C4.08282 30.0592 4.10116 30.2543 4.13392 30.4489C3.75184 31.4527 4.187 32.7479 4.53664 33.3475C4.95446 34.0606 5.34702 34.5835 5.14319 35.4124C4.9374 36.2413 5.65732 35.9539 6.16691 35.9625C6.32746 35.9644 6.49456 35.9657 6.64632 35.9657C6.98119 35.9644 7.11881 35.7215 6.91434 35.3921C6.55879 34.823 5.99287 33.9816 5.54202 33.6219C5.13926 33.2992 4.48289 32.4522 4.54319 31.4715C5.13729 32.1784 5.80482 32.4009 6.35757 32.4509C7.00612 32.5083 7.61789 32.2638 8.11696 32.1854C8.64028 32.1023 9.17601 32.1157 9.66264 32.2346C10.1473 32.355 10.587 32.5786 10.9262 32.8746C11.2709 33.1708 11.4606 33.5627 11.5616 33.9412C11.7484 34.687 11.2368 35.3861 10.8227 35.7536C10.8476 35.7812 10.8797 35.8088 10.9085 35.8344C11.6324 35.3986 12.022 34.6371 11.8807 33.7283C11.7418 32.8352 10.9341 31.9786 9.79898 31.7039ZM9.20817 17.7331C10.0965 18.6719 11.0507 18.295 11.4771 18.3457C11.904 18.3956 12.3949 19.4905 12.1354 20.551C11.8762 21.6113 11.7733 21.4289 11.597 22.0943C11.3748 22.9324 12.4113 23.5337 12.1708 24.3063C12.1046 24.5222 11.9551 24.8304 12.1354 25.0705C12.4159 25.4474 12.8704 24.9515 13.4429 25.0348C13.8915 25.0998 14.2876 24.9482 14.4823 24.8303C14.4141 24.5031 13.1211 24.7041 12.831 24.1742C12.7039 23.9402 12.3648 21.5286 13.1152 20.4509C13.8049 19.4624 13.1649 19.1539 12.6928 18.3556C13.3393 17.999 14.8594 17.243 14.8594 17.243C15.3569 17.8177 15.7091 18.313 16.0123 19.0054C16.1722 19.3494 16.2822 19.719 16.2698 20.0908C16.2803 20.4682 16.1394 20.8391 15.9012 21.1763C16.216 21.1277 16.5051 20.5625 16.5919 20.1279C16.6752 19.6911 16.6122 19.2431 16.4939 18.8273C16.0548 17.4825 15.0338 16.5197 15.0338 16.5197C15.0338 16.5197 13.6522 16.9943 12.37 17.6911C11.9656 16.9319 11.559 17.0665 11.0547 17.1095C10.5543 17.1525 10.2508 16.6233 10.2508 16.6233C10.6395 16.7468 11.1798 16.7682 11.904 16.482C13.528 15.8397 12.911 14.4967 12.911 14.4967C12.911 14.4967 12.9451 15.472 11.9735 15.6093C11.3696 15.694 9.78521 15.3007 9.78521 15.3007C9.78521 15.3007 11.0547 15.153 11.3132 14.4208C11.6652 13.4188 12.6731 13.8124 12.6731 13.8124C12.6731 13.8124 12.1354 13.1789 11.306 13.6751C10.801 13.98 9.96214 14.0769 8.9332 13.5561C7.90526 13.0349 7.53269 13.8987 7.32493 13.9201C7.11753 13.9437 6.95565 13.6033 7.07228 13.2488C7.18959 12.8934 8.36993 12.5582 10.1467 12.4898C11.3198 12.4448 11.8955 12.6758 12.1511 12.8389C12.1538 12.7418 11.8375 12.3069 10.8705 12.069C9.90445 11.8304 9.9674 11.4345 10.0126 10.7518C10.0579 10.0689 9.06725 10.3427 8.82641 10.2563C8.58588 10.1703 8.80938 9.63499 8.80938 9.63499C8.46267 9.73449 8.19822 10.0154 8.21199 10.433C8.21921 10.7116 8.48628 10.9124 8.75237 11.0436C9.01807 11.1756 9.06135 11.4152 8.58392 11.6935C8.19693 11.9192 7.64278 12.2113 6.89989 12.5304C5.24609 13.24 7.31052 14.4629 6.58437 14.8369C5.85593 15.2111 5.67832 15.7011 5.63769 15.9684C5.54724 16.5755 5.95225 17.0267 5.95225 17.0267C7.37343 16.2546 8.32079 16.7958 9.20817 17.7331ZM17.6232 15.5639C17.6232 14.9565 17.7788 14.6637 17.9466 14.6561C18.4588 14.6345 18.5682 15.3615 18.5754 15.5581C18.5964 16.137 18.1701 16.4133 18.1701 16.4133C18.5354 16.4445 18.8238 15.9381 18.872 15.6149C18.9415 15.1382 18.8559 14.9739 18.6881 14.6561C18.6881 14.6561 19.7597 15.6934 19.645 16.844C19.5152 18.1479 18.0462 18.8319 18.0462 18.8319C18.4817 18.9877 19.7406 18.8618 20.5451 17.8348C20.9898 17.267 21.1845 16.4048 20.6451 15.0448C20.1565 13.8097 19.2245 12.7642 20.2155 10.3962C21.1805 8.08827 23.7355 7.78664 25.272 8.88315C25.3716 8.95404 25.4293 9.0393 25.4634 9.12926C25.5636 9.40264 24.8457 9.75943 25.1596 9.92475C25.3762 10.0384 25.6593 10.0679 25.9035 10.2547C26.1276 10.4244 26.1728 10.5697 26.2862 10.6755C26.3714 10.7551 26.4097 10.7712 26.4936 10.7712C25.7983 9.95597 25.6836 9.02775 25.5702 8.04623C25.0246 7.90537 24.1585 7.46172 23.3033 7.36186C22.7675 7.29918 21.4692 7.21396 20.1676 7.85447C18.7019 8.57561 17.15 9.9783 17.15 13.2301C17.15 14.6312 17.6232 15.6441 17.6232 15.5639ZM1.30304 23.1346C2.05802 22.9289 2.05802 22.3683 2.06849 22.2517C2.1891 22.4118 2.23105 22.5881 2.23499 22.8159C2.56853 22.3811 2.48796 21.6268 1.67099 21.1759C1.67099 21.1759 1.71756 22.1663 1.08351 22.5162C0.42385 22.8786 0.32027 23.1113 0.283615 23.4697C0.267877 23.6455 0.302605 23.8281 0.396992 23.9695C0.482185 24.1117 0.628322 24.2114 0.764663 24.2451C0.565411 23.9781 0.526748 23.3459 1.30304 23.1346ZM17.1087 9.28822C15.2566 9.39411 14.6101 8.72942 13.3439 8.1188C12.0744 7.5067 10.9839 7.95397 10.7925 8.24212C11.3827 8.27857 12.0521 8.51321 13.3222 9.31168C15.8868 10.9242 17.1087 9.28822 17.1087 9.28822ZM16.2783 5.35399C16.0096 5.42524 15.3582 5.53113 15.6619 7.03629C15.9677 8.5421 16.7787 8.1771 16.9976 7.98415C16.9976 7.98415 15.8946 7.86924 15.8625 6.5644C15.831 5.25743 17.3374 5.49782 17.3374 5.49782C17.247 5.397 16.7046 5.24037 16.2783 5.35399ZM32.78 24.4883C32.4149 23.1891 31.2529 20.5415 30.458 19.333C29.6594 18.1236 29.2501 18.9907 28.933 19.2641C28.6141 19.5374 27.6792 21.1112 27.2699 19.0823C26.8594 17.0524 24.7664 15.2945 24.7664 15.2945C25.1983 16.8227 25.0836 17.9412 24.9702 18.923C24.8582 19.9021 25.1072 20.2454 25.1072 20.8372C25.1072 21.4312 23.3334 21.8191 23.2397 22.2747C23.1492 22.7308 25.8812 24.6036 28.4817 22.7262C29.2639 22.1617 29.7505 24.3516 30.0005 24.9443C30.2522 25.5384 29.7505 25.7204 30.342 26.4051C30.9348 27.089 30.479 27.6653 30.479 28.093C30.479 28.4928 31.6531 29.4973 31.868 29.2785C32.2465 28.9013 31.3899 26.6552 31.0485 25.8807C30.706 25.1044 30.1604 22.595 29.7747 21.9107C29.5526 21.5196 28.4102 21.7972 28.4102 21.7972L28.3297 21.4933C28.3297 21.4933 28.4883 21.29 28.6351 21.1359C29.8207 19.9034 29.7289 20.4049 30.9577 21.9107C32.1859 23.4155 30.706 24.0096 31.7756 24.7854C32.8465 25.5604 33.1428 25.7891 32.78 24.4883ZM13.2868 4.30479C13.2868 4.30479 13.515 4.38244 13.9504 4.39161C14.3872 4.40018 14.6035 3.99527 14.6035 3.99527C13.5405 3.88922 13.2305 3.51336 13.2305 3.51336C13.2305 3.51336 14.243 3.46198 14.7556 3.39339C15.2677 3.32407 16.2016 3.07365 16.2016 3.07365C16.2016 3.07365 16.1663 3.91187 16.159 4.39917C16.1545 4.88604 16.7794 4.77962 16.9878 4.71332C17.2502 4.63039 17.2915 3.65917 17.3348 2.82851C17.3676 2.20064 16.9026 2.19573 16.6371 2.30657C16.2462 2.47044 15.5027 2.85217 14.6999 3.09828C13.8961 3.3431 12.6384 3.16498 12.6384 3.16498L12.5696 3.4265L13.628 4.07787L13.2868 4.30479ZM15.0279 8.2871L15.3142 8.16399C15.3142 8.16399 15.0947 7.52082 15.079 6.95209C15.0659 6.38114 15.2998 5.11866 15.2998 5.11866H15.0279C15.0279 5.11866 14.904 6.04652 14.7431 6.85782C14.5845 7.66976 14.1589 7.51096 13.9504 7.49519C13.7427 7.47914 12.0902 7.24221 12.0902 7.24221V7.48602C12.0902 7.48602 12.1944 7.49982 13.0303 7.62116C13.8685 7.74234 15.0279 8.2871 15.0279 8.2871ZM16.0575 11.8623C15.3762 12.3 14.2568 12.0831 14.2568 12.0831C14.4069 12.2948 15.2199 12.5442 15.6292 12.5369C15.9834 12.5304 16.2973 12.3887 16.5768 12.0831C17.1854 11.4178 16.9373 10.3082 16.7892 10.1692C16.7892 10.1692 16.7223 11.4349 16.0575 11.8623ZM14.4823 31.6058C12.9162 30.0405 13.4881 30.1978 14.4823 28.8033C15.2186 27.7684 18.8107 26.856 20.6202 26.4541L20.5855 26.2879C19.6686 26.3283 18.2936 26.3769 16.9124 26.3756C14.5471 26.3739 13.5923 25.4717 12.9798 25.5866C10.6283 26.0276 12.3005 28.7278 9.54175 28.3447C6.78262 27.9637 6.87371 30.8267 6.87371 30.8267C7.65655 29.2339 8.46592 29.4573 9.08889 29.4301C9.8101 29.3985 10.515 29.9326 11.5282 29.0803C11.7503 28.8945 12.7577 27.2607 12.6128 28.0776C12.5283 28.5541 12.1164 29.0996 11.787 29.4734C11.5518 29.7405 11.4155 29.9441 11.8942 30.2155C12.0639 30.3133 12.2881 30.4416 12.5774 30.6089C13.6942 31.2516 13.5084 31.983 12.7813 31.9451C12.2638 31.9166 11.6507 31.6626 11.1373 31.6091C10.9288 31.5874 10.6919 31.6744 11.0226 31.8315C11.1956 31.9139 11.3919 32.0343 11.5623 32.205C12.3811 33.0249 11.4023 32.7016 13.7479 32.575C14.247 32.5465 14.6022 32.5005 14.8542 32.4479C15.7865 32.2435 14.6874 31.8105 14.4823 31.6058ZM26.5461 32.971C26.357 32.6776 26.2049 32.2645 26.0293 31.8966C25.6554 31.1122 26.0228 31.2637 25.7911 30.8122C25.5322 30.3122 25.4024 30.8017 24.7513 29.8026C24.6232 29.6044 24.365 29.6913 24.3335 30.1696C24.2995 30.646 25.0993 31.0964 25.4641 32.2537C25.8311 33.4125 26.1328 33.5471 25.8347 34.258C25.5401 34.9694 24.0897 34.9267 24.0897 34.9267C25.2212 36.1063 27.5255 34.4969 26.5461 32.971Z"
          fill="white"/>
    <path fill-rule="evenodd" clip-rule="evenodd"
          d="M38.7462 38.417L38.2755 38.2452L52.1588 0L52.6291 0.171816L38.7462 38.417Z" fill="white"/>
</svg>