<svg width="118" height="36" viewBox="0 0 118 36" fill="none" xmlns="http://www.w3.org/2000/svg">
    <path d="M29.7802 0.09375H0.626782C0.467038 0.09375 0.347229 0.212407 0.347229 0.370617V30.9446C0.347229 31.973 1.18589 32.8036 2.22423 32.8036C2.22423 32.8036 11.5693 32.8036 12.0086 32.8036C12.4878 32.8036 12.7275 32.9618 12.9271 33.1991C13.1268 33.4364 15.0438 35.7305 15.0438 35.7305C15.0837 35.8096 15.1636 35.8096 15.2434 35.8096C15.3233 35.8096 15.3632 35.77 15.4431 35.7305C15.4431 35.7305 17.3601 33.476 17.5597 33.1991C17.7594 32.9618 17.999 32.8036 18.4783 32.8036C18.9176 32.8036 28.2626 32.8036 28.2626 32.8036C29.301 32.8036 30.1396 31.973 30.1396 30.9446V0.370617C30.0997 0.212407 29.94 0.09375 29.7802 0.09375Z"
          fill="#8B0208"/>
    <path d="M29.7802 0.09375H0.626782C0.467038 0.09375 0.347229 0.212407 0.347229 0.370617V23.4297C0.347229 24.458 1.18589 25.2886 2.22423 25.2886C2.22423 25.2886 6.01817 25.2886 6.45747 25.2886C6.9367 25.2886 7.17632 25.4468 7.376 25.6841C7.57568 25.9215 9.49262 28.2155 9.49262 28.2155C9.53256 28.2946 9.61243 28.2946 9.6923 28.2946C9.77217 28.2946 9.81211 28.255 9.89198 28.2155C9.89198 28.2155 11.8089 25.961 12.0086 25.6841C12.2083 25.4468 12.4479 25.2886 12.9271 25.2886C13.3664 25.2886 28.2626 25.2886 28.2626 25.2886C29.301 25.2886 30.1396 24.458 30.1396 23.4297V0.370617C30.0997 0.212407 29.94 0.09375 29.7802 0.09375Z"
          fill="#B7121B"/>
    <path d="M29.7802 0.09375H0.626782C0.467038 0.09375 0.347229 0.212407 0.347229 0.370617V14.214C0.347229 15.2423 1.18589 16.0729 2.22423 16.0729C2.22423 16.0729 17.0805 16.0729 17.5198 16.0729C17.999 16.0729 18.2386 16.2311 18.4383 16.4684C18.638 16.7058 20.5549 18.9602 20.5549 18.9602C20.5949 19.0393 20.6748 19.0393 20.7546 19.0393C20.8345 19.0393 20.8744 18.9998 20.9543 18.9602C20.9543 18.9602 22.8713 16.7058 23.0709 16.4684C23.2706 16.2311 23.5102 16.0729 23.9895 16.0729C24.4288 16.0729 28.2227 16.0729 28.2227 16.0729C29.261 16.0729 30.0997 15.2423 30.0997 14.214V0.370617C30.0997 0.212407 29.94 0.09375 29.7802 0.09375Z"
          fill="#ED1C28"/>
    <path d="M34.7323 6.34277H33.6141V4.60246H34.1333L35.9704 0.449463H36.5694L38.4464 4.60246H39.0055V6.34277H37.8873V5.74948H34.7323V6.34277ZM35.5311 4.56291H37.0486L36.2899 2.6644L35.5311 4.56291Z"
          fill="white"/>
    <path d="M42.999 1.67632C42.2002 1.67632 41.8009 1.67632 41.0421 1.67632V2.42781H42.8392C42.8392 2.82334 42.8392 3.21886 42.8392 3.61439H41.0421C41.0421 3.9308 41.0421 4.20767 41.0421 4.52409C41.8408 4.52409 42.2801 4.52409 43.0788 4.52409C43.0788 4.91961 43.0788 5.31514 43.0788 5.71066C41.8408 5.71066 40.9223 5.71066 39.6843 5.71066C39.6843 3.97036 39.6843 2.1905 39.6843 0.450195C40.9223 0.450195 41.7609 0.450195 42.999 0.450195C42.999 0.885272 42.999 1.2808 42.999 1.67632Z"
          fill="white"/>
    <path d="M48.6714 5.74997C48.1922 5.74997 47.7529 5.74997 47.2737 5.74997V1.71563H45.6363V5.74997C45.1571 5.74997 44.7178 5.74997 44.2385 5.74997V0.489502C44.6778 0.489502 45.1571 0.489502 48.6714 0.489502V5.74997Z"
          fill="white"/>
    <path d="M53.1028 5.07758H51.0261L50.7066 5.74997H49.3887V5.55221L51.7849 0.4104H52.3839L54.7801 5.55221V5.74997H53.4622L53.1028 5.07758ZM52.0245 2.54623L51.4255 3.93056H52.6236L52.0245 2.54623Z"
          fill="white"/>
    <path d="M55.4202 5.74997C55.4202 4.00966 55.4202 2.22981 55.4202 0.489502C56.179 0.489502 56.9777 0.489502 57.7765 0.489502C60.3324 0.489502 60.3324 4.40519 57.7765 4.40519H56.7781V5.74997C56.3388 5.74997 55.8595 5.74997 55.4202 5.74997ZM57.7765 1.67607C57.457 1.67607 57.0975 1.67607 56.818 1.67607C56.818 2.11115 56.818 2.74399 56.818 3.17906H57.7765C58.4953 3.17906 58.5353 1.71563 57.7765 1.67607Z"
          fill="white"/>
    <path d="M60.1724 1.67607C60.1724 1.28055 60.1724 0.885026 60.1724 0.489502H64.1261C64.1261 0.885026 64.1261 1.28055 64.1261 1.67607H62.8082V5.74997C62.3689 5.74997 61.9296 5.74997 61.4503 5.74997V1.67607H60.1724Z"
          fill="white"/>
    <path d="M67.7201 5.07758H65.6434L65.3239 5.74997H64.006V5.55221L66.4022 0.4104H67.0013L69.3974 5.55221V5.74997H68.0795L67.7201 5.07758ZM66.6418 2.54623L66.0428 3.93056H67.2409L66.6418 2.54623Z"
          fill="white"/>
    <path d="M74.749 0.489502H75.2282V5.74997C74.749 5.74997 74.3097 5.74997 73.8304 5.74997V3.41638L72.7122 4.60295H72.5525L71.4343 3.41638V5.74997C70.955 5.74997 70.5157 5.74997 70.0365 5.74997V0.489502H70.5557L72.6324 2.78354L74.749 0.489502Z"
          fill="white"/>
    <path d="M79.901 1.67632C79.1023 1.67632 78.7029 1.67632 77.9441 1.67632V2.42781H79.7413C79.7413 2.82334 79.7413 3.21886 79.7413 3.61439H77.9441C77.9441 3.9308 77.9441 4.20767 77.9441 4.52409C78.7429 4.52409 79.1822 4.52409 79.9809 4.52409C79.9809 4.91961 79.9809 5.31514 79.9809 5.71066C78.7429 5.71066 77.8243 5.71066 76.5863 5.71066C76.5863 3.97036 76.5863 2.1905 76.5863 0.450195C77.8243 0.450195 78.663 0.450195 79.901 0.450195C79.901 0.885272 79.901 1.2808 79.901 1.67632Z"
          fill="white"/>
    <path d="M85.5723 5.74997C85.0931 5.74997 84.6538 5.74997 84.1746 5.74997V3.65369H82.5372V5.74997C82.0579 5.74997 81.6186 5.74997 81.1394 5.74997V0.489502C81.5787 0.489502 82.0579 0.489502 82.5372 0.489502V2.38802H84.1746V0.489502C84.6538 0.489502 85.0931 0.489502 85.5723 0.489502V5.74997Z"
          fill="white"/>
    <path d="M86.4099 1.67607C86.4099 1.28055 86.4099 0.885026 86.4099 0.489502H90.3636C90.3636 0.885026 90.3636 1.28055 90.3636 1.67607H89.0457V5.74997C88.6064 5.74997 88.1671 5.74997 87.6879 5.74997V1.67607H86.4099Z"
          fill="white"/>
    <path d="M34.7728 14.768H34.2935V9.50757C34.7728 9.50757 35.2121 9.50757 35.6913 9.50757V12.0785L38.367 9.46802H38.8462V14.768C38.367 14.768 37.9277 14.768 37.4485 14.768V12.1971L34.7728 14.768Z"
          fill="white"/>
    <path d="M44.6366 14.7678C44.1574 14.7678 43.7181 14.7678 43.2388 14.7678V12.6715H41.6014V14.7678C41.1222 14.7678 40.6829 14.7678 40.2037 14.7678V9.50732C40.643 9.50732 41.1222 9.50732 41.6014 9.50732V11.4058H43.2388V9.50732C43.7181 9.50732 44.1574 9.50732 44.6366 9.50732V14.7678Z"
          fill="white"/>
    <path d="M48.1913 14.333C46.8334 14.2934 45.6753 13.7397 45.6753 12.118C45.6753 10.4964 46.7935 9.94265 48.1913 9.90309V9.46802H49.5092V9.90309C50.867 9.94265 52.0251 10.4568 52.0251 12.118C52.0251 13.7397 50.9069 14.2934 49.5092 14.333V14.768H48.2312V14.333H48.1913ZM48.1913 13.1068V11.1688C47.5922 11.2083 47.0731 11.4061 47.0731 12.1576C47.0731 12.8695 47.6322 13.0673 48.1913 13.1068ZM49.4692 11.1688V13.1068C50.0283 13.0673 50.5874 12.8695 50.5874 12.118C50.5874 11.3665 50.0283 11.1688 49.4692 11.1688Z"
          fill="white"/>
    <path d="M52.6636 12.1578C52.6636 8.51901 58.1349 8.51901 58.1349 12.1578C58.1349 15.7966 52.6636 15.7966 52.6636 12.1578ZM56.7371 12.1578C56.7371 10.2593 54.0614 10.2593 54.0614 12.1578C54.0614 14.0563 56.7371 14.0563 56.7371 12.1578Z"
          fill="white"/>
    <path d="M59.1336 14.7678C59.1336 13.0275 59.1336 11.2476 59.1336 9.50732C59.8924 9.50732 60.6911 9.50732 61.4899 9.50732C64.0458 9.50732 64.0458 13.423 61.4899 13.423H60.4914V14.7678C60.0521 14.7678 59.6128 14.7678 59.1336 14.7678ZM61.4899 10.6939C61.1704 10.6939 60.8109 10.6939 60.5314 10.6939C60.5314 11.129 60.5314 11.7618 60.5314 12.1969H61.4899C62.2087 12.1969 62.2886 10.7334 61.4899 10.6939Z"
          fill="white"/>
    <path d="M69.1176 9.50732H69.5969V14.7678C69.1176 14.7678 68.6783 14.7678 68.1991 14.7678V12.4342L67.0809 13.6208H66.9211L65.8029 12.4342V14.7678C65.3237 14.7678 64.8844 14.7678 64.4052 14.7678V9.50732H64.9243L67.001 11.8014L69.1176 9.50732Z"
          fill="white"/>
    <path d="M74.0294 14.0959H71.9527L71.6332 14.7683H70.3153V14.5705L72.7115 9.42871H73.3105L75.7067 14.5705V14.7683H74.3888L74.0294 14.0959ZM72.9511 11.5645L72.3521 12.9489H73.5501L72.9511 11.5645Z"
          fill="white"/>
    <path d="M76.3468 9.50732H77.7446V13.5417H79.3021V9.50732H80.6998V13.6208H81.219V15.3611H80.1008V14.7678H76.3468V9.50732Z"
          fill="white"/>
    <path d="M82.5361 14.768H82.0569V9.50757C82.5361 9.50757 82.9754 9.50757 83.4547 9.50757V12.0785L86.1304 9.46802H86.6096V14.768C86.1304 14.768 85.6911 14.768 85.2118 14.768V12.1971L82.5361 14.768Z"
          fill="white"/>
    <path d="M87.6488 12.1578C87.6488 8.51901 93.1201 8.51901 93.1201 12.1578C93.1201 15.7966 87.6488 15.7966 87.6488 12.1578ZM91.7223 12.1578C91.7223 10.2593 89.0466 10.2593 89.0466 12.1578C89.0466 14.0563 91.7223 14.0563 91.7223 12.1578Z"
          fill="white"/>
    <path d="M98.5506 14.7678C98.0714 14.7678 97.6321 14.7678 97.1528 14.7678V12.6715H95.5154V14.7678C95.0362 14.7678 94.5969 14.7678 94.1177 14.7678V9.50732C94.557 9.50732 95.0362 9.50732 95.5154 9.50732V11.4058H97.1528V9.50732C97.6321 9.50732 98.0714 9.50732 98.5506 9.50732V14.7678Z"
          fill="white"/>
    <path d="M104.342 14.7678C103.862 14.7678 103.423 14.7678 102.944 14.7678V12.6715H101.306V14.7678C100.827 14.7678 100.388 14.7678 99.9086 14.7678V9.50732C100.348 9.50732 100.827 9.50732 101.306 9.50732V11.4058H102.944V9.50732C103.423 9.50732 103.862 9.50732 104.342 9.50732V14.7678Z"
          fill="white"/>
    <path d="M107.057 9.50732V11.0894H108.056C110.612 11.0894 110.612 14.7678 108.056 14.7678H105.7V9.50732H107.057ZM107.057 12.276V13.5417C107.377 13.5417 107.696 13.5417 108.016 13.5417C108.815 13.5417 108.775 12.276 108.016 12.276H107.057ZM110.931 9.50732H112.289V14.7678H110.931V9.50732Z"
          fill="white"/>
    <path d="M115.524 13.1066L114.566 14.7678H113.088V14.57L114.805 11.9991L113.288 9.74464V9.54688H114.686L115.524 10.9312H115.564L116.403 9.54688H117.801V9.74464L116.283 11.9991L118 14.57V14.7678H116.523L115.564 13.1066H115.524Z"
          fill="white"/>
    <path d="M33.7347 19.7518C33.7347 19.3562 33.7347 18.9607 33.7347 18.5652H37.6884C37.6884 18.9607 37.6884 19.3562 37.6884 19.7518H36.3705V23.8257C35.9312 23.8257 35.4919 23.8257 35.0127 23.8257V19.7518H33.7347Z"
          fill="white"/>
    <path d="M41.882 19.7515C41.0833 19.7515 40.684 19.7515 39.9252 19.7515V20.503H41.7223C41.7223 20.8985 41.7223 21.2941 41.7223 21.6896H39.8852C39.8852 22.006 39.8852 22.2829 39.8852 22.5993C40.684 22.5993 41.1233 22.5993 41.922 22.5993C41.922 22.9948 41.922 23.3903 41.922 23.7859C40.684 23.7859 39.7654 23.7859 38.5274 23.7859C38.5274 22.0456 38.5274 20.2657 38.5274 18.5254C39.7654 18.5254 40.6041 18.5254 41.8421 18.5254C41.882 18.9209 41.882 19.3164 41.882 19.7515Z"
          fill="white"/>
    <path d="M44.9568 22.1249L43.9983 23.7861H42.5207V23.5883L44.2379 21.0174L42.7204 18.7629V18.5652H44.1181L44.9568 19.9495H44.9967L45.8354 18.5652H47.2332V18.7629L45.7156 21.0174L47.4328 23.5883V23.7861H45.9552L44.9967 22.1249H44.9568Z"
          fill="white"/>
    <path d="M52.6243 23.7859C52.145 23.7859 51.7057 23.7859 51.2265 23.7859V21.6896H49.5891V23.7859C49.1099 23.7859 48.6706 23.7859 48.1913 23.7859V18.5254C48.6306 18.5254 49.1099 18.5254 49.5891 18.5254V20.4239H51.2265V18.5254C51.7057 18.5254 52.145 18.5254 52.6243 18.5254V23.7859Z"
          fill="white"/>
    <path d="M53.663 21.1756C53.663 17.5368 59.1343 17.5368 59.1343 21.1756C59.1343 24.8145 53.663 24.8145 53.663 21.1756ZM57.7365 21.1756C57.7365 19.2771 55.0608 19.2771 55.0608 21.1756C55.0608 23.0742 57.7365 23.0742 57.7365 21.1756Z"
          fill="white"/>
    <path d="M60.8112 23.7861H59.4933V23.5883L61.8895 18.4465H62.4886L64.8847 23.5883V23.7861H63.5668L62.209 20.701L60.8112 23.7861Z"
          fill="white"/>
    <path d="M65.2045 21.1756C65.2045 17.5368 70.6757 17.5368 70.6757 21.1756C70.6757 24.8145 65.2045 24.8145 65.2045 21.1756ZM69.278 21.1756C69.278 19.2771 66.6022 19.2771 66.6022 21.1756C66.6022 23.0742 69.278 23.0742 69.278 21.1756Z"
          fill="white"/>
    <path d="M73.0711 23.7859C72.6318 23.7859 72.1526 23.7859 71.6733 23.7859V18.5254C72.7516 18.5254 73.9098 18.5254 74.9881 18.5254C74.9881 18.9605 74.9881 19.2769 74.9881 19.712H73.0711V23.7859Z"
          fill="white"/>
    <path d="M76.4663 23.7859H75.9871V18.5254C76.4663 18.5254 76.9056 18.5254 77.3848 18.5254V21.0963L80.0606 18.4858H80.5398V23.7859C80.0606 23.7859 79.6213 23.7859 79.142 23.7859V21.215L76.4663 23.7859Z"
          fill="white"/>
    <path d="M82.4169 23.7859H81.9377V18.5255C82.4169 18.5255 82.8562 18.5255 83.3354 18.5255V21.0964L86.0112 18.4859H86.4904V23.7859C86.0112 23.7859 85.5719 23.7859 85.0926 23.7859V21.215L82.4169 23.7859ZM83.8946 16.9038C83.615 16.9038 83.3754 16.9434 83.0958 16.9829C83.1358 17.8135 83.615 18.2881 84.4137 18.2881C85.2524 18.2881 85.7316 17.8531 85.7316 16.9829C85.492 16.9434 85.2124 16.9038 84.9329 16.9038C84.893 17.2202 84.6933 17.2993 84.3738 17.2993C84.0942 17.2993 83.8946 17.1807 83.8946 16.9038Z"
          fill="white"/>
    <path d="M35.6519 32.8039C35.2126 32.8039 34.7334 32.8039 34.2542 32.8039V27.5435C35.3324 27.5435 36.4906 27.5435 37.5689 27.5435C37.5689 27.9785 37.5689 28.295 37.5689 28.73H35.6519V32.8039Z"
          fill="white"/>
    <path d="M38.0485 30.1935C38.0485 26.5546 43.5197 26.5546 43.5197 30.1935C43.5197 33.8323 38.0485 33.8323 38.0485 30.1935ZM42.122 30.1935C42.122 28.295 39.4462 28.295 39.4462 30.1935C39.4462 32.092 42.122 32.092 42.122 30.1935Z"
          fill="white"/>
    <path d="M44.5173 32.8039C44.5173 31.0636 44.5173 29.2838 44.5173 27.5435C45.2761 27.5435 46.0749 27.5435 46.8736 27.5435C49.4295 27.5435 49.4295 31.4591 46.8736 31.4591H45.8752V32.8039C45.4359 32.8039 44.9566 32.8039 44.5173 32.8039ZM46.8736 28.7696C46.5541 28.7696 46.1947 28.7696 45.9151 28.7696C45.9151 29.2047 45.9151 29.8375 45.9151 30.2726H46.8736C47.5924 30.2726 47.6324 28.7696 46.8736 28.7696Z"
          fill="white"/>
    <path d="M49.4696 30.1935C49.4696 26.5546 54.9409 26.5546 54.9409 30.1935C54.9009 33.8323 49.4696 33.8323 49.4696 30.1935ZM53.5431 30.1935C53.5431 28.295 50.8674 28.295 50.8674 30.1935C50.8674 32.092 53.5431 32.092 53.5431 30.1935Z"
          fill="white"/>
    <path d="M56.4181 33.3972H55.2999V31.6569H55.8191L57.6562 27.5039H58.2552L60.1322 31.6569H60.6913V33.3972H59.5731V32.8039H56.4181V33.3972ZM57.2169 31.6569H58.7344L57.9757 29.7584L57.2169 31.6569Z"
          fill="white"/>
    <path d="M64.7251 32.1711H62.6484L62.3289 32.8435H61.011V32.6457L63.4072 27.5039H64.0063L66.4024 32.6457V32.8435H65.0446L64.7251 32.1711ZM63.6868 29.6397L63.0877 31.0241H64.2858L63.6868 29.6397Z"
          fill="white"/>
    <path d="M73.8709 27.5435H74.3502V32.8039C73.8709 32.8039 73.4316 32.8039 72.9524 32.8039V30.4703L71.8342 31.6569H71.6744L70.5562 30.4703V32.8039C70.077 32.8039 69.6377 32.8039 69.1584 32.8039V27.5435H69.6776L71.7543 29.8375L73.8709 27.5435Z"
          fill="white"/>
    <path d="M75.3485 30.1935C75.3485 26.5546 80.8198 26.5546 80.8198 30.1935C80.8198 33.8323 75.3485 33.8323 75.3485 30.1935ZM79.422 30.1935C79.422 28.295 76.7463 28.295 76.7463 30.1935C76.7463 32.092 79.422 32.092 79.422 30.1935Z"
          fill="white"/>
    <path d="M84.2534 27.5039C85.3716 27.5039 86.5298 28.0972 86.7694 29.5211C86.2902 29.5211 85.8908 29.5211 85.4515 29.5211C85.2518 29.0069 84.8525 28.73 84.2934 28.73C83.4946 28.73 82.9755 29.3233 82.9755 30.1935C82.9755 30.9845 83.4946 31.6569 84.2934 31.6569C84.8525 31.6569 85.3317 31.38 85.4914 30.8263C85.9307 30.8263 86.37 30.8263 86.8093 30.8263C86.6097 32.3293 85.4116 32.883 84.2934 32.883C82.9355 32.883 81.5777 31.9733 81.5777 30.1935C81.5378 28.4136 82.8956 27.5039 84.2534 27.5039Z"
          fill="white"/>
    <path d="M87.8085 32.8039V27.5435C88.2478 27.5435 88.727 27.5435 89.2062 27.5435V29.5211H89.2861C90.6439 29.5211 90.5641 28.5323 90.5641 27.5435C91.0433 27.5435 91.4826 27.5435 91.9618 27.5435C91.9618 28.6114 92.0018 29.6002 90.9235 30.2726L92.3612 32.6062V32.8039H90.8436L89.6855 30.7472C89.4858 30.7868 89.326 30.7868 89.1663 30.7868V32.8039C88.727 32.8039 88.2877 32.8039 87.8085 32.8039Z"
          fill="white"/>
    <path d="M96.6747 30.0748C97.114 30.3121 97.3137 30.6681 97.3137 31.1427C97.3137 32.0524 96.7546 32.8039 95.6763 32.8039H93.2003V27.5435H95.4766C96.3951 27.5435 97.114 28.2554 97.114 29.1651C97.114 29.4815 96.9542 29.877 96.6747 30.0748ZM94.5181 28.7696V29.6002H95.3568C95.876 29.6002 95.876 28.7696 95.3568 28.7696H94.5181ZM94.5181 30.7472V31.6569H95.5964C96.1555 31.6569 96.1156 30.7472 95.5964 30.7472H94.5181Z"
          fill="white"/>
    <path d="M99.7488 27.5435V29.1256H100.747C103.303 29.1256 103.303 32.8039 100.747 32.8039H98.3909V27.5435H99.7488ZM99.7488 30.3517V31.6173C100.068 31.6173 100.388 31.6173 100.707 31.6173C101.506 31.6173 101.466 30.3517 100.707 30.3517H99.7488ZM103.623 27.5435H104.98V32.8039H103.623V27.5435Z"
          fill="white"/>
</svg>