<svg width="846" height="433" viewBox="0 0 846 433" fill="none" xmlns="http://www.w3.org/2000/svg">
<path d="M333.999 73.4603C327.798 73.3521 321.673 74.8178 316.216 77.7156V210.303H314.165V132.139C313.253 132.139 312.341 132.363 311.429 132.363V131.467C303.221 132.139 296.838 133.707 295.242 138.186C294.323 139.246 293.836 140.602 293.874 141.993V214.782H289.77V217.021H285.666V229.787H284.07V233.595H283.386V245.689H279.511V217.693L279.283 217.021V214.782H278.599L278.371 211.198L278.143 208.511C278.371 208.287 278.599 208.287 278.599 207.839C278.599 207.661 278.527 207.49 278.398 207.364C278.27 207.238 278.096 207.167 277.915 207.167C277.733 207.167 277.559 207.238 277.431 207.364C277.303 207.49 277.231 207.661 277.231 207.839C277.231 208.063 277.459 208.287 277.687 208.511L277.459 211.198L277.231 214.782H276.547V215.678H274.039V214.558L271.531 213.214H270.619L267.883 214.558V215.678H265.376V214.782H264.692L264.464 211.198L264.236 208.511C264.464 208.287 264.692 208.287 264.692 207.839C264.692 207.661 264.62 207.49 264.491 207.364C264.363 207.238 264.189 207.167 264.008 207.167C263.826 207.167 263.652 207.238 263.524 207.364C263.396 207.49 263.324 207.661 263.324 207.839C263.324 208.063 263.552 208.287 263.78 208.511L263.552 211.198L263.324 214.782H263.552V217.021L263.324 217.693V229.116H259.676V200H259.904V195.969H258.992L258.536 191.266L258.308 187.906C258.536 187.682 258.992 187.458 258.992 187.01C258.992 186.773 258.896 186.545 258.725 186.377C258.554 186.209 258.322 186.114 258.08 186.114C257.838 186.114 257.606 186.209 257.435 186.377C257.264 186.545 257.168 186.773 257.168 187.01C257.168 187.458 257.396 187.682 257.852 187.906L257.624 191.266L257.168 195.969H256.256V198.88H252.608V196.193H250.328V174.02H250.101L249.873 172.453V171.333L250.101 171.109C250.101 171.049 250.076 170.992 250.034 170.95C249.991 170.908 249.933 170.885 249.873 170.885L249.645 171.109C249.645 171.333 249.645 171.333 249.873 171.333V172.453L249.645 174.02H249.417V174.916H248.733V174.02H247.593V173.348H245.997C246.009 173.037 246.086 172.732 246.225 172.453C246.252 171.84 246.12 171.23 245.841 170.681C245.562 170.133 245.144 169.663 244.629 169.317V168.197H243.945L243.261 154.088L242.805 146.697L243.717 147.145L243.033 146.473C243.476 146.366 243.863 146.1 244.116 145.726C244.369 145.353 244.471 144.9 244.401 144.457C244.432 144.078 244.338 143.698 244.133 143.376C243.928 143.053 243.622 142.804 243.261 142.665C243.575 142.843 243.829 143.108 243.991 143.426C244.154 143.745 244.217 144.103 244.173 144.457C244.133 144.942 243.933 145.401 243.604 145.765C243.275 146.128 242.835 146.377 242.349 146.473C241.841 146.427 241.37 146.194 241.031 145.819C240.692 145.445 240.511 144.958 240.525 144.457C240.525 144.109 240.608 143.766 240.766 143.455C240.924 143.144 241.154 142.874 241.437 142.665C241.095 142.829 240.807 143.084 240.606 143.401C240.404 143.717 240.297 144.083 240.297 144.457C240.304 144.886 240.437 145.305 240.68 145.662C240.922 146.02 241.264 146.301 241.665 146.473L240.981 147.145L241.893 146.697L241.437 154.088L240.753 168.197H240.069V169.317C239.574 169.682 239.171 170.156 238.894 170.7C238.617 171.244 238.473 171.844 238.473 172.453C238.473 172.901 238.473 173.348 238.701 173.348H237.105V174.02H235.965V174.916H235.281V174.02H235.053L234.825 172.453V171.333L235.053 171.109C235.053 171.049 235.029 170.992 234.987 170.95C234.944 170.908 234.886 170.885 234.825 170.885C234.653 170.908 234.492 170.987 234.369 171.109C234.369 171.333 234.37 171.333 234.597 171.333V172.453L234.369 174.02H234.142V196.417H231.634V199.104H227.986V196.193H227.074L226.618 191.49L226.39 188.13C226.618 187.906 227.074 187.682 227.074 187.234C227.074 186.997 226.978 186.769 226.807 186.601C226.636 186.433 226.404 186.338 226.162 186.338C225.92 186.338 225.688 186.433 225.517 186.601C225.346 186.769 225.25 186.997 225.25 187.234C225.25 187.682 225.478 187.906 225.934 188.13L225.706 191.49L225.25 196.193H224.794V200.224H225.022V229.34H217.271V217.917L217.043 217.245V215.006H216.359L216.131 211.422L215.903 208.735C216.131 208.511 216.359 208.511 216.359 208.063C216.359 207.885 216.287 207.714 216.158 207.588C216.03 207.462 215.856 207.391 215.675 207.391C215.493 207.391 215.319 207.462 215.191 207.588C215.063 207.714 214.991 207.885 214.991 208.063C214.991 208.287 215.219 208.511 215.447 208.735L215.219 211.422L214.991 215.006H214.307V215.902H211.799V214.558L209.291 213.214H208.835L206.327 214.558V215.678H203.819V214.782H203.135L202.907 211.198L202.679 208.511C202.907 208.287 203.135 208.287 203.135 207.839C203.135 207.661 203.063 207.49 202.935 207.364C202.807 207.238 202.633 207.167 202.451 207.167C202.27 207.167 202.096 207.238 201.968 207.364C201.84 207.49 201.768 207.661 201.768 207.839C201.768 208.063 201.995 208.287 202.223 208.511L201.995 211.198L201.768 214.782H201.084V217.021L200.856 217.693V256.439H199.488L198.348 258.903H198.804V263.606H196.296V264.502L193.56 267.637H191.964V273.013H191.052V274.804H189.912V281.971H186.036V283.539H186.72V290.93C115.361 307.055 52.2088 326.54 0 348.936C167.57 296.305 396.239 263.83 648.392 263.83C670.051 263.83 689.657 264.054 711.088 264.502L710.86 198.88V197.537L709.036 171.781V165.734H712V163.046H710.404V159.463H711.316V156.551H708.58L707.896 136.842V134.603H708.124V131.915H707.44V129.675H708.124V126.988H707.44L706.756 109.519H708.58V107.279H709.492V101.68H708.808V100.56H708.124V95.6328H708.808V92.4973H706.984V87.3461H707.668V84.8825H706.984V79.2834H707.668V76.8198H706.984V70.7728H709.036V66.5174H709.948V61.8142H709.492V54.4233H706.528V47.4804H707.212V46.5846H705.844V35.1624H706.528V34.2665H705.16V23.2923H706.072V22.8444H704.932V15.2296H705.388V14.3337H704.704V7.16686H705.16V6.271H704.476V0.895861H704.932V0H704.021V0.895861H704.476V6.04704H703.564V7.16686H704.021V14.3337H703.336V15.2296H703.792V22.3964H702.653V23.2923H703.564V34.0426H702.197V34.9384H702.881V46.3606H701.285V47.2565H701.969V54.1994H699.005V61.5902H698.549V66.2935H699.461V70.5488H701.513V76.5958H700.829V79.0594H701.513V84.6585H700.829V87.1221H701.513V92.2733H699.917V95.4088H700.601V100.336H699.917V101.456H699.005V107.055H699.917V109.295H701.741L701.057 126.764H700.373V129.451H701.057V131.691H700.373V134.379H700.601V136.618L699.917 156.327H697.181V159.239H698.093V163.046H696.725V165.734H699.689V171.781L698.777 197.537V198.88L698.321 213.438C698.036 213.302 697.725 213.226 697.409 213.214L697.865 217.021H696.497L696.953 213.214C696.474 213.506 695.921 213.66 695.357 213.66C694.793 213.66 694.241 213.506 693.761 213.214L694.217 217.021H692.165L692.621 213.214C692.142 213.506 691.589 213.66 691.025 213.66C690.461 213.66 689.909 213.506 689.429 213.214L689.885 217.021H688.517L688.973 213.214C688.494 213.506 687.941 213.66 687.377 213.66C686.814 213.66 686.261 213.506 685.782 213.214L686.238 217.021H684.87L685.326 213.214C684.846 213.506 684.294 213.66 683.73 213.66C683.166 213.66 682.613 213.506 682.134 213.214L682.59 217.021H680.994V208.735H681.222V206.719H678.486L676.434 197.761L674.382 206.719H672.558V209.183H673.014V217.693H672.102L672.558 213.886C672.079 214.178 671.526 214.332 670.963 214.332C670.399 214.332 669.846 214.178 669.367 213.886L669.823 217.693H668.455L668.911 213.886C668.431 214.178 667.879 214.332 667.315 214.332C666.751 214.332 666.198 214.178 665.719 213.886L666.175 217.693H664.579L665.035 213.886C664.555 214.178 664.003 214.332 663.439 214.332C662.875 214.332 662.323 214.178 661.843 213.886L662.299 217.693H660.703L661.159 213.886C660.68 214.178 660.127 214.332 659.563 214.332C658.999 214.332 658.447 214.178 657.967 213.886L658.423 217.693H657.055L657.511 213.886C657.032 214.178 656.479 214.332 655.915 214.332C655.352 214.332 654.799 214.178 654.32 213.886L654.776 217.693H653.408L653.864 213.886C653.384 214.178 652.831 214.332 652.268 214.332C651.704 214.332 651.151 214.178 650.672 213.886L651.128 217.693H649.76L650.216 213.886C649.988 213.886 649.532 214.11 649.304 214.11V170.213L648.848 163.942V163.046H649.76V161.254H650.444V156.551H649.76L648.848 153.64L647.708 144.009L646.568 153.64L645.656 156.551H644.972V157.447L642.92 156.551H639.728V148.712H638.361V135.946H637.905L636.993 131.915H636.309V125.644H636.765V122.732H637.449V118.701H636.765V109.519H637.221L636.309 106.159L634.713 101.68H630.609L624.453 62.2621L627.417 64.7257L626.049 61.1423L629.241 58.9026L625.137 59.1266L624.225 55.3192L623.313 59.1266L619.21 58.9026L622.401 61.1423L621.034 64.7257L623.997 62.2621L617.842 101.68H613.966L612.37 106.159L611.458 109.519H611.914V118.701H611.23V122.732H611.914V125.644H612.37V132.587H611.686L610.774 136.618H610.09V149.384H609.178V157.223H607.81L605.759 158.119V157.223H605.075L604.163 154.311L603.023 144.681L601.883 154.311L600.971 157.223H600.287V161.926H600.971V163.718H601.883V164.614L601.427 170.885V218.141H600.515L600.971 214.334C600.491 214.625 599.939 214.78 599.375 214.78C598.811 214.78 598.258 214.625 597.779 214.334L598.235 218.141H596.867L597.323 214.334C596.844 214.625 596.291 214.78 595.727 214.78C595.163 214.78 594.611 214.625 594.131 214.334L594.587 218.141H593.219L593.675 214.334C593.196 214.625 592.643 214.78 592.079 214.78C591.516 214.78 590.963 214.625 590.483 214.334L590.939 218.141H589.572L590.027 214.334C589.548 214.625 588.995 214.78 588.432 214.78C587.868 214.78 587.315 214.625 586.836 214.334L587.292 218.141H585.924L586.38 214.334C585.9 214.625 585.348 214.78 584.784 214.78C584.22 214.78 583.667 214.625 583.188 214.334L583.644 218.141H581.364L581.82 214.334C581.341 214.625 580.788 214.78 580.224 214.78C579.66 214.78 579.108 214.625 578.628 214.334L579.084 218.141H577.488L577.944 214.334C577.465 214.625 576.912 214.78 576.348 214.78C575.785 214.78 575.232 214.625 574.752 214.334L575.208 218.141H574.296V209.631H574.524V207.167H571.333L569.281 198.208L567.229 207.167H565.177V209.631H565.633V218.141H564.721L565.177 214.334C564.698 214.625 564.145 214.78 563.581 214.78C563.017 214.78 562.465 214.625 561.985 214.334L562.441 218.141H561.073L561.529 214.334C561.05 214.625 560.497 214.78 559.933 214.78C559.37 214.78 558.817 214.625 558.337 214.334L558.793 218.141H557.426L557.882 214.334C557.402 214.625 556.849 214.78 556.286 214.78C555.722 214.78 555.169 214.625 554.69 214.334L555.146 218.141H553.094L553.55 214.334C553.07 214.625 552.518 214.78 551.954 214.78C551.39 214.78 550.837 214.625 550.358 214.334L550.814 218.141H549.446L549.902 214.334C549.423 214.625 548.87 214.78 548.306 214.78C547.742 214.78 547.19 214.625 546.71 214.334L547.166 218.141H545.798L546.254 214.334C545.775 214.625 545.222 214.78 544.658 214.78C544.094 214.78 543.542 214.625 543.062 214.334L543.518 218.141H542.15L542.606 214.334C542.127 214.625 541.574 214.78 541.01 214.78C540.447 214.78 539.894 214.625 539.415 214.334L539.871 218.141H538.503L538.959 214.334C538.479 214.625 537.927 214.78 537.363 214.78C536.799 214.78 536.246 214.625 535.767 214.334L536.223 218.141H534.855L535.311 214.334C534.831 214.625 534.279 214.78 533.715 214.78C533.151 214.78 532.599 214.625 532.119 214.334L532.575 218.141H531.207L531.663 214.334C531.184 214.625 530.631 214.78 530.067 214.78C529.503 214.78 528.951 214.625 528.471 214.334L528.927 218.141H526.875V214.11H525.736V210.974H525.964V208.735H525.279V207.839L523.228 200.448H523.684V199.552H523.228V193.729H523.684V192.833H521.86L519.58 186.562L517.3 192.833H515.476V193.729H515.932V199.552H515.476V200.448H515.932L513.88 207.839V208.735H513.196V210.303H513.424V213.438H512.284V230.459H509.093V231.355H507.497V228.444H505.217V232.923H502.253V241.21H498.377V227.324H490.854V230.235H488.802V228.22H480.138V214.782H476.491L471.703 118.701H470.335V118.253H468.739V116.014H463.951C463.039 110.19 462.127 106.607 460.988 106.607C460.532 106.607 460.304 107.055 460.076 107.503H437.961C437.733 106.831 437.277 106.607 437.049 106.607C434.313 106.607 432.261 127.212 432.261 152.52C432.261 159.911 432.489 166.853 432.717 173.124L427.93 172.9V156.103H428.841V124.748H427.93V102.128H428.841V73.4603H423.142V70.3248H413.11V73.4603H411.287V171.333L407.867 173.124V165.51H408.779V131.467H406.727V102.576H407.411V66.2935H401.939V62.71H390.54V66.2935H388.032V102.352H386.436V134.827H387.576V163.942L385.296 165.286V136.618C379.09 136.741 373.154 139.138 368.653 143.337C366.373 163.046 365.689 206.271 365.689 206.271H363.865V172.677C363.638 172.005 362.954 171.557 362.042 170.661C361.586 168.421 359.534 166.406 355.658 164.614V82.6429H353.834V79.9553H352.922V77.4917C351.975 77.0217 350.982 76.6466 349.958 76.3719C344.825 74.5935 339.441 73.6112 333.999 73.4603Z" fill="#EC0E43"/>
<path d="M248.279 361H243.17L236.114 331.562H228.572L221.517 361H216.408L224.68 326.94H240.007L248.279 361ZM279.678 326.94H285.273V361H280.164V335.455H279.678L263.134 361H257.539V326.94H262.648V352.485H263.134L279.678 326.94ZM298.652 361V366.839H293.543V356.378H297.192L304.247 326.94H319.088L326.143 356.378H329.792V366.839H324.683V361H298.652ZM308.14 331.562L302.301 356.378H321.034L315.195 331.562H308.14ZM363.128 356.378V361H338.07V326.94H363.128V331.562H343.179V341.537H358.992V346.16H343.179V356.378H363.128ZM393.751 344.992C395.243 343.565 395.989 341.683 395.989 339.348C395.989 337.012 395.243 335.131 393.751 333.703C392.258 332.276 390.166 331.562 387.474 331.562H377.742V347.133H387.474C390.166 347.133 392.258 346.419 393.751 344.992ZM401.098 339.348C401.098 341.067 400.757 342.673 400.076 344.165C399.427 345.657 398.503 346.971 397.303 348.106C396.102 349.241 394.659 350.133 392.972 350.782C391.318 351.431 389.485 351.755 387.474 351.755H377.742V361H372.633V326.94H387.474C389.485 326.94 391.318 327.264 392.972 327.913C394.659 328.562 396.102 329.454 397.303 330.589C398.503 331.725 399.427 333.055 400.076 334.579C400.757 336.071 401.098 337.661 401.098 339.348ZM447.094 361H441.985V326.94H447.094V361ZM436.438 345.138C437.054 346.5 437.363 347.976 437.363 349.566C437.363 351.155 437.054 352.647 436.438 354.042C435.822 355.404 434.946 356.605 433.811 357.643C432.675 358.681 431.297 359.508 429.675 360.124C428.053 360.708 426.236 361 424.225 361H411.331V326.94H416.44V338.131H424.225C426.236 338.131 428.053 338.439 429.675 339.056C431.297 339.64 432.675 340.451 433.811 341.489C434.946 342.527 435.822 343.743 436.438 345.138ZM424.225 356.378C425.393 356.378 426.463 356.215 427.436 355.891C428.41 355.534 429.253 355.048 429.967 354.431C430.68 353.815 431.232 353.101 431.621 352.29C432.043 351.447 432.254 350.539 432.254 349.566C432.254 348.592 432.043 347.7 431.621 346.889C431.232 346.046 430.68 345.316 429.967 344.7C429.253 344.084 428.41 343.613 427.436 343.289C426.463 342.932 425.393 342.754 424.225 342.754H416.44V356.378H424.225ZM472.38 361V326.94H477.489V356.378H493.789V326.94H498.898V356.378H502.791V366.839H497.682V361H472.38ZM533.692 326.94H539.288V361H534.179V335.455H533.692L517.149 361H511.553V326.94H516.662V352.485H517.149L533.692 326.94ZM571.886 362.946H566.777V359.54C564.085 359.475 561.652 359.021 559.478 358.178C557.305 357.302 555.44 356.167 553.883 354.772C552.326 353.345 551.126 351.707 550.282 349.858C549.439 348.009 549.017 346.046 549.017 343.97C549.017 341.894 549.439 339.931 550.282 338.083C551.126 336.234 552.326 334.612 553.883 333.217C555.44 331.79 557.305 330.654 559.478 329.811C561.652 328.935 564.085 328.465 566.777 328.4V324.994H571.886V328.4C574.546 328.465 576.963 328.935 579.136 329.811C581.342 330.654 583.223 331.79 584.78 333.217C586.337 334.612 587.537 336.234 588.381 338.083C589.224 339.931 589.646 341.894 589.646 343.97C589.646 346.046 589.224 348.009 588.381 349.858C587.537 351.707 586.337 353.345 584.78 354.772C583.223 356.167 581.342 357.302 579.136 358.178C576.963 359.021 574.546 359.475 571.886 359.54V362.946ZM571.886 354.918C573.897 354.853 575.681 354.545 577.238 353.993C578.828 353.41 580.158 352.631 581.228 351.658C582.299 350.685 583.11 349.549 583.661 348.252C584.245 346.922 584.537 345.495 584.537 343.97C584.537 342.445 584.245 341.034 583.661 339.737C583.11 338.439 582.299 337.304 581.228 336.331C580.158 335.358 578.828 334.579 577.238 333.995C575.681 333.411 573.897 333.087 571.886 333.022V354.918ZM566.777 333.022C564.766 333.087 562.965 333.411 561.376 333.995C559.819 334.579 558.505 335.358 557.435 336.331C556.364 337.304 555.537 338.439 554.953 339.737C554.402 341.034 554.126 342.445 554.126 343.97C554.126 345.495 554.402 346.922 554.953 348.252C555.537 349.549 556.364 350.685 557.435 351.658C558.505 352.631 559.819 353.41 561.376 353.993C562.965 354.545 564.766 354.853 566.777 354.918V333.022ZM620.472 344.992C621.964 343.565 622.71 341.683 622.71 339.348C622.71 337.012 621.964 335.131 620.472 333.703C618.979 332.276 616.887 331.562 614.195 331.562H604.463V347.133H614.195C616.887 347.133 618.979 346.419 620.472 344.992ZM627.819 339.348C627.819 341.067 627.478 342.673 626.797 344.165C626.148 345.657 625.224 346.971 624.023 348.106C622.823 349.241 621.38 350.133 619.693 350.782C618.039 351.431 616.206 351.755 614.195 351.755H604.463V361H599.354V326.94H614.195C616.206 326.94 618.039 327.264 619.693 327.913C621.38 328.562 622.823 329.454 624.023 330.589C625.224 331.725 626.148 333.055 626.797 334.579C627.478 336.071 627.819 337.661 627.819 339.348ZM642.528 338.52C641.815 340.207 641.458 342.024 641.458 343.97C641.458 345.916 641.815 347.733 642.528 349.42C643.242 351.106 644.199 352.582 645.399 353.847C646.599 355.08 647.994 356.053 649.584 356.767C651.173 357.48 652.844 357.837 654.595 357.837C656.347 357.837 658.018 357.48 659.607 356.767C661.196 356.053 662.591 355.08 663.792 353.847C664.992 352.582 665.949 351.106 666.662 349.42C667.376 347.733 667.733 345.916 667.733 343.97C667.733 342.024 667.376 340.207 666.662 338.52C665.949 336.834 664.992 335.374 663.792 334.141C662.591 332.876 661.196 331.887 659.607 331.173C658.018 330.46 656.347 330.103 654.595 330.103C652.844 330.103 651.173 330.46 649.584 331.173C647.994 331.887 646.599 332.876 645.399 334.141C644.199 335.374 643.242 336.834 642.528 338.52ZM671.382 336.769C672.355 339.007 672.842 341.407 672.842 343.97C672.842 346.533 672.355 348.933 671.382 351.171C670.409 353.41 669.095 355.372 667.441 357.059C665.786 358.713 663.856 360.027 661.651 361C659.445 361.973 657.093 362.46 654.595 362.46C652.098 362.46 649.746 361.973 647.54 361C645.334 360.027 643.404 358.713 641.75 357.059C640.096 355.372 638.782 353.41 637.809 351.171C636.836 348.933 636.349 346.533 636.349 343.97C636.349 341.407 636.836 339.007 637.809 336.769C638.782 334.531 640.096 332.584 641.75 330.93C643.404 329.243 645.334 327.913 647.54 326.94C649.746 325.967 652.098 325.48 654.595 325.48C657.093 325.48 659.445 325.967 661.651 326.94C663.856 327.913 665.786 329.243 667.441 330.93C669.095 332.584 670.409 334.531 671.382 336.769ZM697.429 326.94C699.018 326.94 700.445 327.183 701.711 327.67C703.008 328.124 704.111 328.773 705.019 329.616C705.927 330.427 706.625 331.384 707.111 332.487C707.63 333.557 707.89 334.709 707.89 335.942C707.89 337.174 707.679 338.18 707.257 338.958C706.868 339.737 706.43 340.353 705.944 340.807C705.36 341.359 704.711 341.764 703.997 342.024V342.267C705.457 342.494 706.755 342.948 707.89 343.629C708.863 344.213 709.755 345.073 710.566 346.208C711.377 347.311 711.783 348.836 711.783 350.782C711.783 352.177 711.507 353.507 710.955 354.772C710.404 356.005 709.609 357.091 708.571 358.032C707.533 358.94 706.268 359.67 704.776 360.221C703.316 360.74 701.678 361 699.862 361H682.832V326.94H697.429ZM699.862 356.378C702.067 356.378 703.754 355.842 704.922 354.772C706.09 353.701 706.674 352.371 706.674 350.782C706.674 349.225 706.09 347.911 704.922 346.841C703.754 345.738 702.067 345.186 699.862 345.186H687.941V356.378H699.862ZM687.941 331.562V340.564H697.429C699.148 340.564 700.462 340.142 701.37 339.299C702.311 338.423 702.781 337.304 702.781 335.942C702.781 334.709 702.311 333.671 701.37 332.828C700.462 331.984 699.148 331.562 697.429 331.562H687.941ZM726.006 338.52C725.292 340.207 724.935 342.024 724.935 343.97C724.935 345.916 725.292 347.733 726.006 349.42C726.719 351.106 727.676 352.582 728.876 353.847C730.077 355.08 731.471 356.053 733.061 356.767C734.65 357.48 736.321 357.837 738.073 357.837C739.824 357.837 741.495 357.48 743.084 356.767C744.674 356.053 746.069 355.08 747.269 353.847C748.469 352.582 749.426 351.106 750.14 349.42C750.853 347.733 751.21 345.916 751.21 343.97C751.21 342.024 750.853 340.207 750.14 338.52C749.426 336.834 748.469 335.374 747.269 334.141C746.069 332.876 744.674 331.887 743.084 331.173C741.495 330.46 739.824 330.103 738.073 330.103C736.321 330.103 734.65 330.46 733.061 331.173C731.471 331.887 730.077 332.876 728.876 334.141C727.676 335.374 726.719 336.834 726.006 338.52ZM754.859 336.769C755.832 339.007 756.319 341.407 756.319 343.97C756.319 346.533 755.832 348.933 754.859 351.171C753.886 353.41 752.572 355.372 750.918 357.059C749.264 358.713 747.334 360.027 745.128 361C742.922 361.973 740.57 362.46 738.073 362.46C735.575 362.46 733.223 361.973 731.017 361C728.812 360.027 726.881 358.713 725.227 357.059C723.573 355.372 722.259 353.41 721.286 351.171C720.313 348.933 719.826 346.533 719.826 343.97C719.826 341.407 720.313 339.007 721.286 336.769C722.259 334.531 723.573 332.584 725.227 330.93C726.881 329.243 728.812 327.913 731.017 326.94C733.223 325.967 735.575 325.48 738.073 325.48C740.57 325.48 742.922 325.967 745.128 326.94C747.334 327.913 749.264 329.243 750.918 330.93C752.572 332.584 753.886 334.531 754.859 336.769ZM782.998 322.561C782.155 322.885 781.214 323.048 780.176 323.048C779.138 323.048 778.181 322.885 777.305 322.561C776.462 322.204 775.716 321.718 775.067 321.101C774.451 320.452 773.964 319.706 773.607 318.863C773.283 317.987 773.121 317.03 773.121 315.992H777.013C777.013 316.965 777.289 317.744 777.841 318.328C778.424 318.879 779.203 319.155 780.176 319.155C781.149 319.155 781.912 318.879 782.463 318.328C783.047 317.744 783.339 316.965 783.339 315.992H787.231C787.231 317.03 787.053 317.987 786.696 318.863C786.372 319.706 785.885 320.452 785.236 321.101C784.62 321.718 783.874 322.204 782.998 322.561ZM788.448 326.94H794.043V361H788.934V335.455H788.448L771.904 361H766.309V326.94H771.418V352.485H771.904L788.448 326.94ZM161.487 387.562V382.94H189.464V387.562H178.03V417H172.921V387.562H161.487ZM219.326 400.992C220.819 399.565 221.565 397.683 221.565 395.348C221.565 393.012 220.819 391.131 219.326 389.703C217.834 388.276 215.742 387.562 213.05 387.562H203.318V403.133H213.05C215.742 403.133 217.834 402.419 219.326 400.992ZM226.674 395.348C226.674 397.067 226.333 398.673 225.652 400.165C225.003 401.657 224.079 402.971 222.878 404.106C221.678 405.241 220.235 406.133 218.548 406.782C216.894 407.431 215.061 407.755 213.05 407.755H203.318V417H198.209V382.94H213.05C215.061 382.94 216.894 383.264 218.548 383.913C220.235 384.562 221.678 385.454 222.878 386.589C224.079 387.725 225.003 389.055 225.652 390.579C226.333 392.071 226.674 393.661 226.674 395.348ZM240.322 382.94H255.649L263.921 417H258.569L256.623 408.972H239.301L237.403 417H232.051L240.322 382.94ZM240.42 404.349H255.503L251.514 387.562H244.458L240.42 404.349ZM273.181 382.94H278.29V397.78H295.563V382.94H300.672V417H295.563V402.403H278.29V417H273.181V382.94ZM328.411 418.46C326.043 418.46 323.788 417.973 321.647 417C319.506 416.027 317.609 414.713 315.954 413.059C314.333 411.372 313.035 409.41 312.062 407.171C311.121 404.933 310.651 402.533 310.651 399.97C310.651 397.407 311.121 395.007 312.062 392.769C313.035 390.531 314.333 388.584 315.954 386.93C317.609 385.243 319.506 383.913 321.647 382.94C323.788 381.967 326.043 381.48 328.411 381.48C330.552 381.48 332.482 381.789 334.201 382.405C335.92 383.021 337.428 383.832 338.726 384.838C340.056 385.843 341.159 386.995 342.035 388.292C342.91 389.557 343.559 390.855 343.981 392.185L338.872 392.915C338.515 392.071 338.029 391.244 337.412 390.433C336.796 389.59 336.05 388.86 335.174 388.244C334.331 387.595 333.341 387.076 332.206 386.687C331.071 386.297 329.805 386.103 328.411 386.103C326.756 386.103 325.167 386.46 323.642 387.173C322.118 387.887 320.771 388.876 319.604 390.141C318.436 391.374 317.495 392.834 316.782 394.52C316.1 396.207 315.76 398.024 315.76 399.97C315.76 401.916 316.1 403.733 316.782 405.42C317.495 407.106 318.436 408.582 319.604 409.847C320.771 411.08 322.118 412.053 323.642 412.767C325.167 413.48 326.756 413.837 328.411 413.837C329.935 413.837 331.298 413.626 332.498 413.205C333.73 412.783 334.817 412.232 335.758 411.55C336.699 410.837 337.51 410.026 338.191 409.118C338.872 408.209 339.423 407.269 339.845 406.295L344.954 407.025C344.532 408.42 343.851 409.799 342.91 411.161C341.97 412.524 340.802 413.756 339.407 414.859C338.012 415.93 336.39 416.789 334.541 417.438C332.692 418.119 330.649 418.46 328.411 418.46ZM375.348 418.946H370.239V415.54C367.546 415.475 365.113 415.021 362.94 414.178C360.767 413.302 358.902 412.167 357.344 410.772C355.787 409.345 354.587 407.707 353.744 405.858C352.9 404.009 352.479 402.046 352.479 399.97C352.479 397.894 352.9 395.931 353.744 394.083C354.587 392.234 355.787 390.612 357.344 389.217C358.902 387.79 360.767 386.654 362.94 385.811C365.113 384.935 367.546 384.465 370.239 384.4V380.994H375.348V384.4C378.008 384.465 380.424 384.935 382.597 385.811C384.803 386.654 386.685 387.79 388.242 389.217C389.799 390.612 390.999 392.234 391.842 394.083C392.686 395.931 393.107 397.894 393.107 399.97C393.107 402.046 392.686 404.009 391.842 405.858C390.999 407.707 389.799 409.345 388.242 410.772C386.685 412.167 384.803 413.302 382.597 414.178C380.424 415.021 378.008 415.475 375.348 415.54V418.946ZM375.348 410.918C377.359 410.853 379.143 410.545 380.7 409.993C382.289 409.41 383.619 408.631 384.69 407.658C385.76 406.685 386.571 405.549 387.123 404.252C387.706 402.922 387.998 401.495 387.998 399.97C387.998 398.445 387.706 397.034 387.123 395.737C386.571 394.439 385.76 393.304 384.69 392.331C383.619 391.358 382.289 390.579 380.7 389.995C379.143 389.411 377.359 389.087 375.348 389.022V410.918ZM370.239 389.022C368.227 389.087 366.427 389.411 364.838 389.995C363.281 390.579 361.967 391.358 360.896 392.331C359.826 393.304 358.999 394.439 358.415 395.737C357.863 397.034 357.588 398.445 357.588 399.97C357.588 401.495 357.863 402.922 358.415 404.252C358.999 405.549 359.826 406.685 360.896 407.658C361.967 408.631 363.281 409.41 364.838 409.993C366.427 410.545 368.227 410.853 370.239 410.918V389.022ZM407.292 394.52C406.579 396.207 406.222 398.024 406.222 399.97C406.222 401.916 406.579 403.733 407.292 405.42C408.006 407.106 408.963 408.582 410.163 409.847C411.363 411.08 412.758 412.053 414.348 412.767C415.937 413.48 417.608 413.837 419.359 413.837C421.111 413.837 422.782 413.48 424.371 412.767C425.961 412.053 427.355 411.08 428.556 409.847C429.756 408.582 430.713 407.106 431.426 405.42C432.14 403.733 432.497 401.916 432.497 399.97C432.497 398.024 432.14 396.207 431.426 394.52C430.713 392.834 429.756 391.374 428.556 390.141C427.355 388.876 425.961 387.887 424.371 387.173C422.782 386.46 421.111 386.103 419.359 386.103C417.608 386.103 415.937 386.46 414.348 387.173C412.758 387.887 411.363 388.876 410.163 390.141C408.963 391.374 408.006 392.834 407.292 394.52ZM436.146 392.769C437.119 395.007 437.606 397.407 437.606 399.97C437.606 402.533 437.119 404.933 436.146 407.171C435.173 409.41 433.859 411.372 432.205 413.059C430.551 414.713 428.62 416.027 426.415 417C424.209 417.973 421.857 418.46 419.359 418.46C416.862 418.46 414.51 417.973 412.304 417C410.098 416.027 408.168 414.713 406.514 413.059C404.86 411.372 403.546 409.41 402.573 407.171C401.6 404.933 401.113 402.533 401.113 399.97C401.113 397.407 401.6 395.007 402.573 392.769C403.546 390.531 404.86 388.584 406.514 386.93C408.168 385.243 410.098 383.913 412.304 382.94C414.51 381.967 416.862 381.48 419.359 381.48C421.857 381.48 424.209 381.967 426.415 382.94C428.62 383.913 430.551 385.243 432.205 386.93C433.859 388.584 435.173 390.531 436.146 392.769ZM468.713 400.992C470.205 399.565 470.951 397.683 470.951 395.348C470.951 393.012 470.205 391.131 468.713 389.703C467.221 388.276 465.128 387.562 462.436 387.562H452.705V403.133H462.436C465.128 403.133 467.221 402.419 468.713 400.992ZM476.06 395.348C476.06 397.067 475.719 398.673 475.038 400.165C474.39 401.657 473.465 402.971 472.265 404.106C471.065 405.241 469.621 406.133 467.934 406.782C466.28 407.431 464.447 407.755 462.436 407.755H452.705V417H447.596V382.94H462.436C464.447 382.94 466.28 383.264 467.934 383.913C469.621 384.562 471.065 385.454 472.265 386.589C473.465 387.725 474.39 389.055 475.038 390.579C475.719 392.071 476.06 393.661 476.06 395.348ZM503.81 405.079L491.889 390.239H491.402V417H486.293V382.94H491.889L503.81 397.78L515.731 382.94H521.326V417H516.217V390.239H515.731L503.81 405.079ZM538.86 382.94H554.187L562.459 417H557.106L555.16 408.972H537.838L535.941 417H530.588L538.86 382.94ZM538.957 404.349H554.041L550.051 387.562H542.996L538.957 404.349ZM571.719 417V382.94H576.828V412.378H593.128V382.94H598.237V412.378H602.129V422.839H597.02V417H571.719ZM633.03 382.94H638.626V417H633.517V391.455H633.03L616.487 417H610.891V382.94H616V408.485H616.487L633.03 382.94ZM672.441 382.94H678.036V417H672.927V391.455H672.441L655.897 417H650.302V382.94H655.411V408.485H655.897L672.441 382.94Z" fill="white"/>
</svg>
